0
SECTION
2
HEADER
9
$INSUNITS
70
4
0
ENDSEC
0
SECTION
2
TABLES
0
TABLE
2
LTYPE
0
LTYPE
72
65
70
64
2
CONTINUOUS
3
______
73
0
40
0
0
ENDTAB
0
TABLE
2
LAYER
0
ENDTAB
0
ENDSEC
0
SECTION
2
ENTITIES
0
LINE
8
0
10
6.75
20
8.75
11
-6.75
21
8.75
0
LINE
8
0
10
-8.75
20
6.75
11
-8.75
21
-6.75
0
LINE
8
0
10
-6.75
20
-8.75
11
-5.75
21
-8.75
0
LINE
8
0
10
8.75
20
-8.25
11
8.75
21
6.75
0
LINE
8
0
10
-1.75
20
-25.75
11
25.75
21
-25.75
0
LINE
8
0
10
10.25
20
-8.25
11
8.75
21
-8.25
0
LINE
8
0
10
-3.75
20
-10.75
11
-3.75
21
-23.75
0
LINE
8
0
10
25.75
20
8.75
11
12.25
21
8.75
0
LINE
8
0
10
10.25
20
6.75
11
10.25
21
-8.25
0
LINE
8
0
10
27.75
20
-23.75
11
27.75
21
6.75
0
LINE
8
0
10
44.75
20
10.75
11
31.25
21
10.75
0
LINE
8
0
10
29.25
20
-21.75
11
29.25
21
8.75
0
LINE
8
0
10
46.75
20
-21.75
11
46.75
21
8.75
0
LINE
8
0
10
31.25
20
-23.75
11
44.75
21
-23.75
0
LINE
8
0
10
63.75
20
12.75
11
50.25
21
12.75
0
LINE
8
0
10
48.25
20
-19.75
11
48.25
21
10.75
0
LINE
8
0
10
65.75
20
-19.75
11
65.75
21
10.75
0
LINE
8
0
10
50.25
20
-21.75
11
63.75
21
-21.75
0
LINE
8
0
10
82.75
20
10.75
11
69.25
21
10.75
0
LINE
8
0
10
67.25
20
-21.75
11
67.25
21
8.75
0
LINE
8
0
10
84.75
20
-21.75
11
84.75
21
8.75
0
LINE
8
0
10
69.25
20
-23.75
11
82.75
21
-23.75
0
LINE
8
0
10
101.75
20
25.75
11
88.25
21
25.75
0
LINE
8
0
10
86.25
20
-6.75
11
86.25
21
23.75
0
LINE
8
0
10
103.75
20
-6.75
11
103.75
21
23.75
0
LINE
8
0
10
88.25
20
-8.75
11
101.75
21
-8.75
0
LINE
8
0
10
120.75
20
40.75
11
107.25
21
40.75
0
LINE
8
0
10
105.25
20
8.25
11
105.25
21
38.75
0
LINE
8
0
10
122.75
20
8.25
11
122.75
21
38.75
0
LINE
8
0
10
107.25
20
6.25
11
120.75
21
6.25
0
LINE
8
0
10
123.2972777
20
-29.0376588
11
148.7972777
21
15.1296368
0
LINE
8
0
10
130.7075318
20
-36.2027223
11
137.2027223
21
-39.9527223
0
LINE
8
0
10
137.2027223
20
-39.9527223
11
137.2027223
21
-39.9527223
0
LINE
8
0
10
113.0700364
20
-27.7517604
11
106.3200364
21
-39.4431034
0
LINE
8
0
10
107.0520872
20
-42.1751542
11
118.3104175
21
-48.6751542
0
LINE
8
0
10
125.475481
20
-41.2649001
11
127.975481
21
-36.9347731
0
LINE
8
0
10
120.5652269
20
-29.7697096
11
115.8020872
21
-27.0197096
0
LINE
8
0
10
117.0245191
20
-58.9023955
11
128.7158621
21
-65.6523955
0
LINE
8
0
10
131.4479129
20
-64.9203447
11
138.1979129
21
-53.2290017
0
LINE
8
0
10
137.4658621
20
-50.4969509
11
126.2075318
21
-43.9969509
0
LINE
8
0
10
119.0424683
20
-51.407205
11
116.2924683
21
-56.1703447
0
LINE
8
0
10
146.9527223
20
-23.0652269
11
147.7027223
21
-21.7661889
0
LINE
8
0
10
139.9347731
20
-39.2206715
11
151.1931034
21
-45.7206715
0
LINE
8
0
10
153.9251542
20
-44.9886207
11
160.6751542
21
-33.2972777
0
LINE
8
0
10
159.9431034
20
-30.5652269
11
146.9527223
21
-23.0652269
0
LINE
8
0
10
163.2206715
20
9.1116876
11
151.5293285
21
15.8616876
0
LINE
8
0
10
157.4527223
20
-4.8786935
11
163.9527223
21
6.3796368
0
LINE
8
0
10
147.7027223
20
-21.7661889
11
160.6931034
21
-29.2661889
0
LINE
8
0
10
163.4251542
20
-28.5341381
11
170.1751542
21
-16.8427951
0
LINE
8
0
10
169.4431034
20
-14.1107443
11
158.1847731
21
-7.6107443
0
ARC
8
0
10
150.5293285
20
14.1296368
40
2
50
59.9999999
51
149.9999999
0
ARC
8
0
10
162.2206715
20
7.3796368
40
2
50
329.9999999
51
59.9999999
0
ARC
8
0
10
159.1847731
20
-5.8786935
40
2
50
149.9999999
51
239.9999999
0
ARC
8
0
10
168.4431034
20
-15.8427951
40
2
50
329.9999999
51
59.9999999
0
ARC
8
0
10
161.6931034
20
-27.5341381
40
2
50
239.9999999
51
329.9999999
0
ARC
8
0
10
158.9431034
20
-32.2972777
40
2
50
329.9999999
51
59.9999999
0
ARC
8
0
10
152.1931034
20
-43.9886207
40
2
50
239.9999999
51
329.9999999
0
ARC
8
0
10
138.9347731
20
-40.9527223
40
2
50
59.9999999
51
149.9999999
0
ARC
8
0
10
129.7075318
20
-37.9347731
40
2
50
59.9999999
51
149.9999999
0
ARC
8
0
10
127.2075318
20
-42.2649001
40
2
50
149.9999999
51
239.9999999
0
ARC
8
0
10
136.4658621
20
-52.2290017
40
2
50
329.9999999
51
59.9999999
0
ARC
8
0
10
129.7158621
20
-63.9203447
40
2
50
239.9999999
51
329.9999999
0
ARC
8
0
10
118.0245191
20
-57.1703447
40
2
50
149.9999999
51
239.9999999
0
ARC
8
0
10
117.3104175
20
-50.407205
40
2
50
329.9999999
51
59.9999999
0
ARC
8
0
10
108.0520872
20
-40.4431034
40
2
50
149.9999999
51
239.9999999
0
ARC
8
0
10
114.8020872
20
-28.7517604
40
2
50
59.9999999
51
149.9999999
0
ARC
8
0
10
121.5652269
20
-28.0376588
40
2
50
239.9999999
51
329.9999999
0
ARC
8
0
10
-6.75
20
6.75
40
2
50
90
51
180
0
ARC
8
0
10
-6.75
20
-6.75
40
2
50
180
51
270
0
ARC
8
0
10
-5.75
20
-10.75
40
2
50
0
51
90
0
ARC
8
0
10
-1.75
20
-23.75
40
2
50
180
51
270
0
ARC
8
0
10
25.75
20
-23.75
40
2
50
270
51
0
0
ARC
8
0
10
25.75
20
6.75
40
2
50
0
51
90
0
ARC
8
0
10
12.25
20
6.75
40
2
50
90
51
180
0
ARC
8
0
10
6.75
20
6.75
40
2
50
0
51
90
0
ARC
8
0
10
31.25
20
8.75
40
2
50
90
51
180
0
ARC
8
0
10
31.25
20
-21.75
40
2
50
180
51
270
0
ARC
8
0
10
44.75
20
-21.75
40
2
50
270
51
0
0
ARC
8
0
10
44.75
20
8.75
40
2
50
0
51
90
0
ARC
8
0
10
50.25
20
10.75
40
2
50
90
51
180
0
ARC
8
0
10
50.25
20
-19.75
40
2
50
180
51
270
0
ARC
8
0
10
63.75
20
-19.75
40
2
50
270
51
0
0
ARC
8
0
10
63.75
20
10.75
40
2
50
0
51
90
0
ARC
8
0
10
69.25
20
8.75
40
2
50
90
51
180
0
ARC
8
0
10
69.25
20
-21.75
40
2
50
180
51
270
0
ARC
8
0
10
82.75
20
-21.75
40
2
50
270
51
0
0
ARC
8
0
10
82.75
20
8.75
40
2
50
0
51
90
0
ARC
8
0
10
88.25
20
23.75
40
2
50
90
51
180
0
ARC
8
0
10
88.25
20
-6.75
40
2
50
180
51
270
0
ARC
8
0
10
101.75
20
-6.75
40
2
50
270
51
0
0
ARC
8
0
10
101.75
20
23.75
40
2
50
0
51
90
0
ARC
8
0
10
107.25
20
38.75
40
2
50
90
51
180
0
ARC
8
0
10
107.25
20
8.25
40
2
50
180
51
270
0
ARC
8
0
10
120.75
20
8.25
40
2
50
270
51
0
0
ARC
8
0
10
120.75
20
38.75
40
2
50
0
51
90
0
ENDSEC
0
EOF