0
SECTION
2
HEADER
9
$INSUNITS
70
4
0
ENDSEC
0
SECTION
2
TABLES
0
TABLE
2
LTYPE
0
LTYPE
72
65
70
64
2
CONTINUOUS
3
______
73
0
40
0
0
ENDTAB
0
TABLE
2
LAYER
0
ENDTAB
0
ENDSEC
0
SECTION
2
ENTITIES
0
LINE
8
0
10
-0.75
20
-8.75
11
92.1620875
21
-8.75
0
LINE
8
0
10
-2.75
20
-6.75
11
-2.75
21
78.75
0
LINE
8
0
10
-0.75
20
80.75
11
175.5
21
80.75
0
LINE
8
0
10
99.75
20
-1.60735
11
99.75
21
1.25
0
LINE
8
0
10
102.5543923
20
3.25
11
101.75
21
3.25
0
LINE
8
0
10
177.5
20
11.05
11
177.5
21
78.75
0
LINE
8
0
10
175.5
20
9.05
11
175.3275175
21
9.05
0
LINE
8
0
10
152.3235571
20
-21.5472777
11
157.0866969
21
-24.2972777
0
LINE
8
0
10
134.9133031
20
-31.7027223
11
148.3366969
21
-39.4527223
0
LINE
8
0
10
134.1812523
20
-28.9706715
11
136.9312523
21
-24.2075318
0
LINE
8
0
10
151.0687477
20
-38.7206715
11
157.8187477
21
-27.0293285
0
LINE
8
0
10
135.3331761
20
-20.975481
11
136.1992015
21
-21.475481
0
LINE
8
0
10
152.3235571
20
-21.5472777
11
153.0735571
21
-20.2482396
0
LINE
8
0
10
93.7591473
20
-11.9838112
11
125.3690745
21
-30.2338112
0
LINE
8
0
10
93.7591473
20
-11.9838112
11
93.8941383
21
-11.75
0
LINE
8
0
10
99.75
20
-1.60735
11
102.5543923
21
3.25
0
LINE
8
0
10
132.6011253
20
-21.7075318
11
128.1011253
21
-29.5017604
0
LINE
8
0
10
153.5963158
20
-0.342795
11
166.5866969
21
-7.842795
0
LINE
8
0
10
153.0735571
20
-20.2482396
11
157.8366969
21
-22.9982396
0
LINE
8
0
10
160.5687477
20
-22.2661888
11
167.3187477
21
-10.5748458
0
LINE
8
0
10
175.3275175
20
9.05
11
176.1732994
21
8.5616876
0
LINE
8
0
10
154.3463158
20
0.956243
11
167.4232994
21
-6.593757
0
LINE
8
0
10
170.1553502
20
-5.8617062
11
176.9053502
21
5.8296368
0
LINE
8
0
10
154.3463158
20
0.956243
11
153.5963158
21
-0.342795
0
ARC
8
0
10
92.1620875
20
-10.75
40
2
50
329.9999999
51
90
0
ARC
8
0
10
126.3690745
20
-28.5017604
40
2
50
239.9999999
51
329.9999999
0
ARC
8
0
10
134.3331761
20
-22.7075318
40
2
50
59.9999999
51
149.9999999
0
ARC
8
0
10
135.1992015
20
-23.2075318
40
2
50
329.9999999
51
59.9999999
0
ARC
8
0
10
135.9133031
20
-29.9706715
40
2
50
149.9999999
51
239.9999999
0
ARC
8
0
10
149.3366969
20
-37.7206715
40
2
50
239.9999999
51
329.9999999
0
ARC
8
0
10
156.0866969
20
-26.0293285
40
2
50
329.9999999
51
59.9999999
0
ARC
8
0
10
158.8366969
20
-21.2661888
40
2
50
239.9999999
51
329.9999999
0
ARC
8
0
10
165.5866969
20
-9.5748458
40
2
50
329.9999999
51
59.9999999
0
ARC
8
0
10
168.4232994
20
-4.8617062
40
2
50
239.9999999
51
329.9999999
0
ARC
8
0
10
175.1732994
20
6.8296368
40
2
50
329.9999999
51
59.9999999
0
ARC
8
0
10
175.5
20
11.05
40
2
50
270
51
0
0
ARC
8
0
10
175.5
20
78.75
40
2
50
0
51
90
0
ARC
8
0
10
-0.75
20
78.75
40
2
50
90
51
180
0
ARC
8
0
10
-0.75
20
-6.75
40
2
50
180
51
270
0
ARC
8
0
10
101.75
20
1.25
40
2
50
90
51
180
0
ENDSEC
0
EOF