0
SECTION
2
HEADER
9
$INSUNITS
70
4
0
ENDSEC
0
SECTION
2
TABLES
0
TABLE
2
LTYPE
0
LTYPE
72
65
70
64
2
CONTINUOUS
3
______
73
0
40
0
0
ENDTAB
0
TABLE
2
LAYER
0
ENDTAB
0
ENDSEC
0
SECTION
2
ENTITIES
0
LINE
8
0
10
26.75
20
8.25
11
9.25
21
8.25
0
LINE
8
0
10
9.25
20
8.25
11
9.25
21
-8.25
0
LINE
8
0
10
9.25
20
-8.25
11
26.75
21
-8.25
0
LINE
8
0
10
26.75
20
-8.25
11
26.75
21
8.25
0
LINE
8
0
10
44.75
20
8.25
11
27.25
21
8.25
0
LINE
8
0
10
27.25
20
8.25
11
27.25
21
-8.25
0
LINE
8
0
10
27.25
20
-8.25
11
44.75
21
-8.25
0
LINE
8
0
10
44.75
20
-8.25
11
44.75
21
8.25
0
LINE
8
0
10
44.75
20
25.25
11
27.25
21
25.25
0
LINE
8
0
10
27.25
20
25.25
11
27.25
21
8.75
0
LINE
8
0
10
27.25
20
8.75
11
44.75
21
8.75
0
LINE
8
0
10
44.75
20
8.75
11
44.75
21
25.25
0
LINE
8
0
10
44.75
20
42.25
11
27.25
21
42.25
0
LINE
8
0
10
27.25
20
42.25
11
27.25
21
25.75
0
LINE
8
0
10
27.25
20
25.75
11
44.75
21
25.75
0
LINE
8
0
10
44.75
20
25.75
11
44.75
21
42.25
0
LINE
8
0
10
44.75
20
59.25
11
27.25
21
59.25
0
LINE
8
0
10
27.25
20
59.25
11
27.25
21
42.75
0
LINE
8
0
10
27.25
20
42.75
11
44.75
21
42.75
0
LINE
8
0
10
44.75
20
42.75
11
44.75
21
59.25
0
LINE
8
0
10
44.75
20
76.25
11
27.25
21
76.25
0
LINE
8
0
10
27.25
20
76.25
11
27.25
21
59.75
0
LINE
8
0
10
27.25
20
59.75
11
44.75
21
59.75
0
LINE
8
0
10
44.75
20
59.75
11
44.75
21
76.25
0
LINE
8
0
10
62.75
20
10.25
11
45.25
21
10.25
0
LINE
8
0
10
45.25
20
10.25
11
45.25
21
-6.25
0
LINE
8
0
10
45.25
20
-6.25
11
62.75
21
-6.25
0
LINE
8
0
10
62.75
20
-6.25
11
62.75
21
10.25
0
LINE
8
0
10
62.75
20
27.25
11
45.25
21
27.25
0
LINE
8
0
10
45.25
20
27.25
11
45.25
21
10.75
0
LINE
8
0
10
45.25
20
10.75
11
62.75
21
10.75
0
LINE
8
0
10
62.75
20
10.75
11
62.75
21
27.25
0
LINE
8
0
10
62.75
20
44.25
11
45.25
21
44.25
0
LINE
8
0
10
45.25
20
44.25
11
45.25
21
27.75
0
LINE
8
0
10
45.25
20
27.75
11
62.75
21
27.75
0
LINE
8
0
10
62.75
20
27.75
11
62.75
21
44.25
0
LINE
8
0
10
62.75
20
61.25
11
45.25
21
61.25
0
LINE
8
0
10
45.25
20
61.25
11
45.25
21
44.75
0
LINE
8
0
10
45.25
20
44.75
11
62.75
21
44.75
0
LINE
8
0
10
62.75
20
44.75
11
62.75
21
61.25
0
LINE
8
0
10
62.75
20
78.25
11
45.25
21
78.25
0
LINE
8
0
10
45.25
20
78.25
11
45.25
21
61.75
0
LINE
8
0
10
45.25
20
61.75
11
62.75
21
61.75
0
LINE
8
0
10
62.75
20
61.75
11
62.75
21
78.25
0
LINE
8
0
10
80.75
20
12.25
11
63.25
21
12.25
0
LINE
8
0
10
63.25
20
12.25
11
63.25
21
-4.25
0
LINE
8
0
10
63.25
20
-4.25
11
80.75
21
-4.25
0
LINE
8
0
10
80.75
20
-4.25
11
80.75
21
12.25
0
LINE
8
0
10
80.75
20
29.25
11
63.25
21
29.25
0
LINE
8
0
10
63.25
20
29.25
11
63.25
21
12.75
0
LINE
8
0
10
63.25
20
12.75
11
80.75
21
12.75
0
LINE
8
0
10
80.75
20
12.75
11
80.75
21
29.25
0
LINE
8
0
10
80.75
20
46.25
11
63.25
21
46.25
0
LINE
8
0
10
63.25
20
46.25
11
63.25
21
29.75
0
LINE
8
0
10
63.25
20
29.75
11
80.75
21
29.75
0
LINE
8
0
10
80.75
20
29.75
11
80.75
21
46.25
0
LINE
8
0
10
80.75
20
63.25
11
63.25
21
63.25
0
LINE
8
0
10
63.25
20
63.25
11
63.25
21
46.75
0
LINE
8
0
10
63.25
20
46.75
11
80.75
21
46.75
0
LINE
8
0
10
80.75
20
46.75
11
80.75
21
63.25
0
LINE
8
0
10
80.75
20
80.25
11
63.25
21
80.25
0
LINE
8
0
10
63.25
20
80.25
11
63.25
21
63.75
0
LINE
8
0
10
63.25
20
63.75
11
80.75
21
63.75
0
LINE
8
0
10
80.75
20
63.75
11
80.75
21
80.25
0
LINE
8
0
10
98.75
20
10.25
11
81.25
21
10.25
0
LINE
8
0
10
81.25
20
10.25
11
81.25
21
-6.25
0
LINE
8
0
10
81.25
20
-6.25
11
98.75
21
-6.25
0
LINE
8
0
10
98.75
20
-6.25
11
98.75
21
10.25
0
LINE
8
0
10
98.75
20
27.25
11
81.25
21
27.25
0
LINE
8
0
10
81.25
20
27.25
11
81.25
21
10.75
0
LINE
8
0
10
81.25
20
10.75
11
98.75
21
10.75
0
LINE
8
0
10
98.75
20
10.75
11
98.75
21
27.25
0
LINE
8
0
10
98.75
20
44.25
11
81.25
21
44.25
0
LINE
8
0
10
81.25
20
44.25
11
81.25
21
27.75
0
LINE
8
0
10
81.25
20
27.75
11
98.75
21
27.75
0
LINE
8
0
10
98.75
20
27.75
11
98.75
21
44.25
0
LINE
8
0
10
98.75
20
61.25
11
81.25
21
61.25
0
LINE
8
0
10
81.25
20
61.25
11
81.25
21
44.75
0
LINE
8
0
10
81.25
20
44.75
11
98.75
21
44.75
0
LINE
8
0
10
98.75
20
44.75
11
98.75
21
61.25
0
LINE
8
0
10
98.75
20
78.25
11
81.25
21
78.25
0
LINE
8
0
10
81.25
20
78.25
11
81.25
21
61.75
0
LINE
8
0
10
81.25
20
61.75
11
98.75
21
61.75
0
LINE
8
0
10
98.75
20
61.75
11
98.75
21
78.25
0
LINE
8
0
10
116.75
20
25.25
11
99.25
21
25.25
0
LINE
8
0
10
99.25
20
25.25
11
99.25
21
8.75
0
LINE
8
0
10
99.25
20
8.75
11
116.75
21
8.75
0
LINE
8
0
10
116.75
20
8.75
11
116.75
21
25.25
0
LINE
8
0
10
116.75
20
42.25
11
99.25
21
42.25
0
LINE
8
0
10
99.25
20
42.25
11
99.25
21
25.75
0
LINE
8
0
10
99.25
20
25.75
11
116.75
21
25.75
0
LINE
8
0
10
116.75
20
25.75
11
116.75
21
42.25
0
LINE
8
0
10
116.75
20
59.25
11
99.25
21
59.25
0
LINE
8
0
10
99.25
20
59.25
11
99.25
21
42.75
0
LINE
8
0
10
99.25
20
42.75
11
116.75
21
42.75
0
LINE
8
0
10
116.75
20
42.75
11
116.75
21
59.25
0
LINE
8
0
10
116.75
20
76.25
11
99.25
21
76.25
0
LINE
8
0
10
99.25
20
76.25
11
99.25
21
59.75
0
LINE
8
0
10
99.25
20
59.75
11
116.75
21
59.75
0
LINE
8
0
10
116.75
20
59.75
11
116.75
21
76.25
0
LINE
8
0
10
134.75
20
40.25
11
117.25
21
40.25
0
LINE
8
0
10
117.25
20
40.25
11
117.25
21
23.75
0
LINE
8
0
10
117.25
20
23.75
11
134.75
21
23.75
0
LINE
8
0
10
134.75
20
23.75
11
134.75
21
40.25
0
LINE
8
0
10
134.75
20
57.25
11
117.25
21
57.25
0
LINE
8
0
10
117.25
20
57.25
11
117.25
21
40.75
0
LINE
8
0
10
117.25
20
40.75
11
134.75
21
40.75
0
LINE
8
0
10
134.75
20
40.75
11
134.75
21
57.25
0
LINE
8
0
10
134.75
20
74.25
11
117.25
21
74.25
0
LINE
8
0
10
117.25
20
74.25
11
117.25
21
57.75
0
LINE
8
0
10
117.25
20
57.75
11
134.75
21
57.75
0
LINE
8
0
10
134.75
20
57.75
11
134.75
21
74.25
0
LINE
8
0
10
157.7027223
20
-25.2302904
11
142.5472777
21
-16.4802904
0
LINE
8
0
10
142.5472777
20
-16.4802904
11
134.2972777
21
-30.7697096
0
LINE
8
0
10
134.2972777
20
-30.7697096
11
149.4527223
21
-39.5197096
0
LINE
8
0
10
149.4527223
20
-39.5197096
11
157.7027223
21
-25.2302904
0
LINE
8
0
10
167.2027223
20
-8.7758077
11
152.0472777
21
-0.0258077
0
LINE
8
0
10
152.0472777
20
-0.0258077
11
143.7972777
21
-14.3152269
0
LINE
8
0
10
143.7972777
20
-14.3152269
11
158.9527223
21
-23.0652269
0
LINE
8
0
10
158.9527223
20
-23.0652269
11
167.2027223
21
-8.7758077
0
LINE
8
0
10
146.8248458
20
24.9286749
11
176.7027223
21
7.6786749
0
LINE
8
0
10
138.5748458
20
10.6392557
11
168.4527223
21
-6.6107443
0
LINE
8
0
10
168.4527223
20
-6.6107443
11
176.7027223
21
7.6786749
0
LINE
8
0
10
146.8248458
20
24.9286749
11
138.5748458
21
10.6392557
0
ENDSEC
0
EOF