0
SECTION
2
HEADER
9
$INSUNITS
70
4
0
ENDSEC
0
SECTION
2
TABLES
0
TABLE
2
LTYPE
0
LTYPE
72
65
70
64
2
CONTINUOUS
3
______
73
0
40
0
0
ENDTAB
0
TABLE
2
LAYER
0
ENDTAB
0
ENDSEC
0
SECTION
2
ENTITIES
0
LINE
8
0
10
-8.75
20
-8.25
11
8.75
21
-8.25
0
LINE
8
0
10
8.75
20
-8.25
11
8.75
21
8.25
0
LINE
8
0
10
8.75
20
8.25
11
-8.75
21
8.25
0
LINE
8
0
10
-8.75
20
8.25
11
-8.75
21
-8.25
0
LINE
8
0
10
-17.75
20
8.75
11
8.75
21
8.75
0
LINE
8
0
10
-17.75
20
25.25
11
8.75
21
25.25
0
LINE
8
0
10
-17.75
20
25.75
11
8.75
21
25.75
0
LINE
8
0
10
-17.75
20
42.25
11
8.75
21
42.25
0
LINE
8
0
10
-17.75
20
42.75
11
8.75
21
42.75
0
LINE
8
0
10
-17.75
20
59.25
11
8.75
21
59.25
0
LINE
8
0
10
-17.75
20
59.75
11
8.75
21
59.75
0
LINE
8
0
10
-17.75
20
76.25
11
8.75
21
76.25
0
LINE
8
0
10
9.25
20
-8.25
11
26.75
21
-8.25
0
LINE
8
0
10
26.75
20
-8.25
11
26.75
21
8.25
0
LINE
8
0
10
26.75
20
8.25
11
9.25
21
8.25
0
LINE
8
0
10
9.25
20
8.25
11
9.25
21
-8.25
0
LINE
8
0
10
9.25
20
8.75
11
26.75
21
8.75
0
LINE
8
0
10
26.75
20
8.75
11
26.75
21
25.25
0
LINE
8
0
10
26.75
20
25.25
11
9.25
21
25.25
0
LINE
8
0
10
9.25
20
25.25
11
9.25
21
8.75
0
LINE
8
0
10
9.25
20
25.75
11
26.75
21
25.75
0
LINE
8
0
10
26.75
20
25.75
11
26.75
21
42.25
0
LINE
8
0
10
26.75
20
42.25
11
9.25
21
42.25
0
LINE
8
0
10
9.25
20
42.25
11
9.25
21
25.75
0
LINE
8
0
10
9.25
20
42.75
11
26.75
21
42.75
0
LINE
8
0
10
26.75
20
42.75
11
26.75
21
59.25
0
LINE
8
0
10
26.75
20
59.25
11
9.25
21
59.25
0
LINE
8
0
10
9.25
20
59.25
11
9.25
21
42.75
0
LINE
8
0
10
9.25
20
59.75
11
26.75
21
59.75
0
LINE
8
0
10
26.75
20
59.75
11
26.75
21
76.25
0
LINE
8
0
10
26.75
20
76.25
11
9.25
21
76.25
0
LINE
8
0
10
9.25
20
76.25
11
9.25
21
59.75
0
LINE
8
0
10
27.25
20
-6.25
11
44.75
21
-6.25
0
LINE
8
0
10
44.75
20
-6.25
11
44.75
21
10.25
0
LINE
8
0
10
44.75
20
10.25
11
27.25
21
10.25
0
LINE
8
0
10
27.25
20
10.25
11
27.25
21
-6.25
0
LINE
8
0
10
27.25
20
10.75
11
44.75
21
10.75
0
LINE
8
0
10
44.75
20
10.75
11
44.75
21
27.25
0
LINE
8
0
10
44.75
20
27.25
11
27.25
21
27.25
0
LINE
8
0
10
27.25
20
27.25
11
27.25
21
10.75
0
LINE
8
0
10
27.25
20
27.75
11
44.75
21
27.75
0
LINE
8
0
10
44.75
20
27.75
11
44.75
21
44.25
0
LINE
8
0
10
44.75
20
44.25
11
27.25
21
44.25
0
LINE
8
0
10
27.25
20
44.25
11
27.25
21
27.75
0
LINE
8
0
10
27.25
20
44.75
11
44.75
21
44.75
0
LINE
8
0
10
44.75
20
44.75
11
44.75
21
61.25
0
LINE
8
0
10
44.75
20
61.25
11
27.25
21
61.25
0
LINE
8
0
10
27.25
20
61.25
11
27.25
21
44.75
0
LINE
8
0
10
27.25
20
61.75
11
44.75
21
61.75
0
LINE
8
0
10
44.75
20
61.75
11
44.75
21
78.25
0
LINE
8
0
10
44.75
20
78.25
11
27.25
21
78.25
0
LINE
8
0
10
27.25
20
78.25
11
27.25
21
61.75
0
LINE
8
0
10
45.25
20
-4.25
11
62.75
21
-4.25
0
LINE
8
0
10
62.75
20
-4.25
11
62.75
21
12.25
0
LINE
8
0
10
62.75
20
12.25
11
45.25
21
12.25
0
LINE
8
0
10
45.25
20
12.25
11
45.25
21
-4.25
0
LINE
8
0
10
45.25
20
12.75
11
62.75
21
12.75
0
LINE
8
0
10
62.75
20
12.75
11
62.75
21
29.25
0
LINE
8
0
10
62.75
20
29.25
11
45.25
21
29.25
0
LINE
8
0
10
45.25
20
29.25
11
45.25
21
12.75
0
LINE
8
0
10
45.25
20
29.75
11
62.75
21
29.75
0
LINE
8
0
10
62.75
20
29.75
11
62.75
21
46.25
0
LINE
8
0
10
62.75
20
46.25
11
45.25
21
46.25
0
LINE
8
0
10
45.25
20
46.25
11
45.25
21
29.75
0
LINE
8
0
10
45.25
20
46.75
11
62.75
21
46.75
0
LINE
8
0
10
62.75
20
46.75
11
62.75
21
63.25
0
LINE
8
0
10
62.75
20
63.25
11
45.25
21
63.25
0
LINE
8
0
10
45.25
20
63.25
11
45.25
21
46.75
0
LINE
8
0
10
45.25
20
63.75
11
62.75
21
63.75
0
LINE
8
0
10
62.75
20
63.75
11
62.75
21
80.25
0
LINE
8
0
10
62.75
20
80.25
11
45.25
21
80.25
0
LINE
8
0
10
45.25
20
80.25
11
45.25
21
63.75
0
LINE
8
0
10
63.25
20
-6.25
11
80.75
21
-6.25
0
LINE
8
0
10
80.75
20
-6.25
11
80.75
21
10.25
0
LINE
8
0
10
80.75
20
10.25
11
63.25
21
10.25
0
LINE
8
0
10
63.25
20
10.25
11
63.25
21
-6.25
0
LINE
8
0
10
63.25
20
10.75
11
80.75
21
10.75
0
LINE
8
0
10
80.75
20
10.75
11
80.75
21
27.25
0
LINE
8
0
10
80.75
20
27.25
11
63.25
21
27.25
0
LINE
8
0
10
63.25
20
27.25
11
63.25
21
10.75
0
LINE
8
0
10
63.25
20
27.75
11
80.75
21
27.75
0
LINE
8
0
10
80.75
20
27.75
11
80.75
21
44.25
0
LINE
8
0
10
80.75
20
44.25
11
63.25
21
44.25
0
LINE
8
0
10
63.25
20
44.25
11
63.25
21
27.75
0
LINE
8
0
10
63.25
20
44.75
11
80.75
21
44.75
0
LINE
8
0
10
80.75
20
44.75
11
80.75
21
61.25
0
LINE
8
0
10
80.75
20
61.25
11
63.25
21
61.25
0
LINE
8
0
10
63.25
20
61.25
11
63.25
21
44.75
0
LINE
8
0
10
63.25
20
61.75
11
80.75
21
61.75
0
LINE
8
0
10
80.75
20
61.75
11
80.75
21
78.25
0
LINE
8
0
10
80.75
20
78.25
11
63.25
21
78.25
0
LINE
8
0
10
63.25
20
78.25
11
63.25
21
61.75
0
LINE
8
0
10
81.25
20
8.75
11
98.75
21
8.75
0
LINE
8
0
10
98.75
20
8.75
11
98.75
21
25.25
0
LINE
8
0
10
98.75
20
25.25
11
81.25
21
25.25
0
LINE
8
0
10
81.25
20
25.25
11
81.25
21
8.75
0
LINE
8
0
10
81.25
20
25.75
11
98.75
21
25.75
0
LINE
8
0
10
98.75
20
25.75
11
98.75
21
42.25
0
LINE
8
0
10
98.75
20
42.25
11
81.25
21
42.25
0
LINE
8
0
10
81.25
20
42.25
11
81.25
21
25.75
0
LINE
8
0
10
81.25
20
42.75
11
98.75
21
42.75
0
LINE
8
0
10
98.75
20
42.75
11
98.75
21
59.25
0
LINE
8
0
10
98.75
20
59.25
11
81.25
21
59.25
0
LINE
8
0
10
81.25
20
59.25
11
81.25
21
42.75
0
LINE
8
0
10
81.25
20
59.75
11
98.75
21
59.75
0
LINE
8
0
10
98.75
20
59.75
11
98.75
21
76.25
0
LINE
8
0
10
98.75
20
76.25
11
81.25
21
76.25
0
LINE
8
0
10
81.25
20
76.25
11
81.25
21
59.75
0
LINE
8
0
10
99.25
20
23.75
11
116.75
21
23.75
0
LINE
8
0
10
116.75
20
23.75
11
116.75
21
40.25
0
LINE
8
0
10
116.75
20
40.25
11
99.25
21
40.25
0
LINE
8
0
10
99.25
20
40.25
11
99.25
21
23.75
0
LINE
8
0
10
99.25
20
40.75
11
116.75
21
40.75
0
LINE
8
0
10
116.75
20
40.75
11
116.75
21
57.25
0
LINE
8
0
10
116.75
20
57.25
11
99.25
21
57.25
0
LINE
8
0
10
99.25
20
57.25
11
99.25
21
40.75
0
LINE
8
0
10
99.25
20
57.75
11
116.75
21
57.75
0
LINE
8
0
10
116.75
20
57.75
11
116.75
21
74.25
0
LINE
8
0
10
116.75
20
74.25
11
99.25
21
74.25
0
LINE
8
0
10
99.25
20
74.25
11
99.25
21
57.75
0
LINE
8
0
10
93.4527223
20
-29.5197096
11
110.2027223
21
-0.5078586
0
LINE
8
0
10
78.2972777
20
-20.7697096
11
95.0472777
21
8.2421414
0
LINE
8
0
10
109.0411796
20
-38.5197096
11
125.7911796
21
-9.5078586
0
LINE
8
0
10
93.885735
20
-29.7697096
11
110.635735
21
-0.7578586
0
LINE
8
0
10
110.885735
20
-0.3248459
11
126.0411796
21
-9.0748459
0
LINE
8
0
10
126.0411796
20
-9.0748459
11
134.2911796
21
5.2145733
0
LINE
8
0
10
134.2911796
20
5.2145733
11
119.135735
21
13.9645733
0
LINE
8
0
10
119.135735
20
13.9645733
11
110.885735
21
-0.3248459
0
LINE
8
0
10
109.4741922
20
-38.7697096
11
124.6296368
21
-47.5197096
0
LINE
8
0
10
124.6296368
20
-47.5197096
11
132.8796368
21
-33.2302904
0
LINE
8
0
10
132.8796368
20
-33.2302904
11
117.7241922
21
-24.4802904
0
LINE
8
0
10
117.7241922
20
-24.4802904
11
109.4741922
21
-38.7697096
0
LINE
8
0
10
117.9741922
20
-24.0472777
11
133.1296368
21
-32.7972777
0
LINE
8
0
10
133.1296368
20
-32.7972777
11
141.3796368
21
-18.5078585
0
LINE
8
0
10
141.3796368
20
-18.5078585
11
126.2241922
21
-9.7578585
0
LINE
8
0
10
126.2241922
20
-9.7578585
11
117.9741922
21
-24.0472777
0
LINE
8
0
10
126.4741922
20
-9.3248458
11
141.6296368
21
-18.0748458
0
LINE
8
0
10
141.6296368
20
-18.0748458
11
149.8796368
21
-3.7854266
0
LINE
8
0
10
149.8796368
20
-3.7854266
11
134.7241922
21
4.9645734
0
LINE
8
0
10
134.7241922
20
4.9645734
11
126.4741922
21
-9.3248458
0
LINE
8
0
10
8.75
20
8.75
11
8.75
21
25.25
0
LINE
8
0
10
-17.75
20
25.25
11
-17.75
21
8.75
0
LINE
8
0
10
8.75
20
25.75
11
8.75
21
42.25
0
LINE
8
0
10
-17.75
20
42.25
11
-17.75
21
25.75
0
LINE
8
0
10
8.75
20
42.75
11
8.75
21
59.25
0
LINE
8
0
10
-17.75
20
59.25
11
-17.75
21
42.75
0
LINE
8
0
10
8.75
20
59.75
11
8.75
21
76.25
0
LINE
8
0
10
-17.75
20
76.25
11
-17.75
21
59.75
0
LINE
8
0
10
78.2972777
20
-20.7697096
11
93.4527223
21
-29.5197096
0
LINE
8
0
10
110.2027223
20
-0.5078586
11
95.0472777
21
8.2421414
0
LINE
8
0
10
93.885735
20
-29.7697096
11
109.0411796
21
-38.5197096
0
LINE
8
0
10
125.7911796
20
-9.5078586
11
110.635735
21
-0.7578586
0
ENDSEC
0
EOF