0
SECTION
2
HEADER
9
$INSUNITS
70
4
0
ENDSEC
0
SECTION
2
TABLES
0
TABLE
2
LTYPE
0
LTYPE
72
65
70
64
2
CONTINUOUS
3
______
73
0
40
0
0
ENDTAB
0
TABLE
2
LAYER
0
ENDTAB
0
ENDSEC
0
SECTION
2
ENTITIES
0
LINE
8
0
10
26.75
20
8.25
11
9.25
21
8.25
0
LINE
8
0
10
9.25
20
8.25
11
9.25
21
-8.25
0
LINE
8
0
10
9.25
20
-8.25
11
26.75
21
-8.25
0
LINE
8
0
10
26.75
20
-8.25
11
26.75
21
8.25
0
LINE
8
0
10
44.75
20
8.25
11
27.25
21
8.25
0
LINE
8
0
10
27.25
20
8.25
11
27.25
21
-8.25
0
LINE
8
0
10
27.25
20
-8.25
11
44.75
21
-8.25
0
LINE
8
0
10
44.75
20
-8.25
11
44.75
21
8.25
0
LINE
8
0
10
44.75
20
25.25
11
27.25
21
25.25
0
LINE
8
0
10
27.25
20
25.25
11
27.25
21
8.75
0
LINE
8
0
10
27.25
20
8.75
11
44.75
21
8.75
0
LINE
8
0
10
44.75
20
8.75
11
44.75
21
25.25
0
LINE
8
0
10
44.75
20
42.25
11
27.25
21
42.25
0
LINE
8
0
10
27.25
20
42.25
11
27.25
21
25.75
0
LINE
8
0
10
27.25
20
25.75
11
44.75
21
25.75
0
LINE
8
0
10
44.75
20
25.75
11
44.75
21
42.25
0
LINE
8
0
10
44.75
20
59.25
11
27.25
21
59.25
0
LINE
8
0
10
27.25
20
59.25
11
27.25
21
42.75
0
LINE
8
0
10
27.25
20
42.75
11
44.75
21
42.75
0
LINE
8
0
10
44.75
20
42.75
11
44.75
21
59.25
0
LINE
8
0
10
44.75
20
76.25
11
27.25
21
76.25
0
LINE
8
0
10
27.25
20
76.25
11
27.25
21
59.75
0
LINE
8
0
10
27.25
20
59.75
11
44.75
21
59.75
0
LINE
8
0
10
44.75
20
59.75
11
44.75
21
76.25
0
LINE
8
0
10
62.75
20
10.25
11
45.25
21
10.25
0
LINE
8
0
10
45.25
20
10.25
11
45.25
21
-6.25
0
LINE
8
0
10
45.25
20
-6.25
11
62.75
21
-6.25
0
LINE
8
0
10
62.75
20
-6.25
11
62.75
21
10.25
0
LINE
8
0
10
62.75
20
27.25
11
45.25
21
27.25
0
LINE
8
0
10
45.25
20
27.25
11
45.25
21
10.75
0
LINE
8
0
10
45.25
20
10.75
11
62.75
21
10.75
0
LINE
8
0
10
62.75
20
10.75
11
62.75
21
27.25
0
LINE
8
0
10
62.75
20
44.25
11
45.25
21
44.25
0
LINE
8
0
10
45.25
20
44.25
11
45.25
21
27.75
0
LINE
8
0
10
45.25
20
27.75
11
62.75
21
27.75
0
LINE
8
0
10
62.75
20
27.75
11
62.75
21
44.25
0
LINE
8
0
10
62.75
20
61.25
11
45.25
21
61.25
0
LINE
8
0
10
45.25
20
61.25
11
45.25
21
44.75
0
LINE
8
0
10
45.25
20
44.75
11
62.75
21
44.75
0
LINE
8
0
10
62.75
20
44.75
11
62.75
21
61.25
0
LINE
8
0
10
62.75
20
78.25
11
45.25
21
78.25
0
LINE
8
0
10
45.25
20
78.25
11
45.25
21
61.75
0
LINE
8
0
10
45.25
20
61.75
11
62.75
21
61.75
0
LINE
8
0
10
62.75
20
61.75
11
62.75
21
78.25
0
LINE
8
0
10
80.75
20
12.25
11
63.25
21
12.25
0
LINE
8
0
10
63.25
20
12.25
11
63.25
21
-4.25
0
LINE
8
0
10
63.25
20
-4.25
11
80.75
21
-4.25
0
LINE
8
0
10
80.75
20
-4.25
11
80.75
21
12.25
0
LINE
8
0
10
80.75
20
29.25
11
63.25
21
29.25
0
LINE
8
0
10
63.25
20
29.25
11
63.25
21
12.75
0
LINE
8
0
10
63.25
20
12.75
11
80.75
21
12.75
0
LINE
8
0
10
80.75
20
12.75
11
80.75
21
29.25
0
LINE
8
0
10
80.75
20
46.25
11
63.25
21
46.25
0
LINE
8
0
10
63.25
20
46.25
11
63.25
21
29.75
0
LINE
8
0
10
63.25
20
29.75
11
80.75
21
29.75
0
LINE
8
0
10
80.75
20
29.75
11
80.75
21
46.25
0
LINE
8
0
10
80.75
20
63.25
11
63.25
21
63.25
0
LINE
8
0
10
63.25
20
63.25
11
63.25
21
46.75
0
LINE
8
0
10
63.25
20
46.75
11
80.75
21
46.75
0
LINE
8
0
10
80.75
20
46.75
11
80.75
21
63.25
0
LINE
8
0
10
80.75
20
80.25
11
63.25
21
80.25
0
LINE
8
0
10
63.25
20
80.25
11
63.25
21
63.75
0
LINE
8
0
10
63.25
20
63.75
11
80.75
21
63.75
0
LINE
8
0
10
80.75
20
63.75
11
80.75
21
80.25
0
LINE
8
0
10
98.75
20
10.25
11
81.25
21
10.25
0
LINE
8
0
10
81.25
20
10.25
11
81.25
21
-6.25
0
LINE
8
0
10
81.25
20
-6.25
11
98.75
21
-6.25
0
LINE
8
0
10
98.75
20
-6.25
11
98.75
21
10.25
0
LINE
8
0
10
98.75
20
27.25
11
81.25
21
27.25
0
LINE
8
0
10
81.25
20
27.25
11
81.25
21
10.75
0
LINE
8
0
10
81.25
20
10.75
11
98.75
21
10.75
0
LINE
8
0
10
98.75
20
10.75
11
98.75
21
27.25
0
LINE
8
0
10
98.75
20
44.25
11
81.25
21
44.25
0
LINE
8
0
10
81.25
20
44.25
11
81.25
21
27.75
0
LINE
8
0
10
81.25
20
27.75
11
98.75
21
27.75
0
LINE
8
0
10
98.75
20
27.75
11
98.75
21
44.25
0
LINE
8
0
10
98.75
20
61.25
11
81.25
21
61.25
0
LINE
8
0
10
81.25
20
61.25
11
81.25
21
44.75
0
LINE
8
0
10
81.25
20
44.75
11
98.75
21
44.75
0
LINE
8
0
10
98.75
20
44.75
11
98.75
21
61.25
0
LINE
8
0
10
98.75
20
78.25
11
81.25
21
78.25
0
LINE
8
0
10
81.25
20
78.25
11
81.25
21
61.75
0
LINE
8
0
10
81.25
20
61.75
11
98.75
21
61.75
0
LINE
8
0
10
98.75
20
61.75
11
98.75
21
78.25
0
LINE
8
0
10
116.75
20
25.25
11
99.25
21
25.25
0
LINE
8
0
10
99.25
20
25.25
11
99.25
21
8.75
0
LINE
8
0
10
99.25
20
8.75
11
116.75
21
8.75
0
LINE
8
0
10
116.75
20
8.75
11
116.75
21
25.25
0
LINE
8
0
10
116.75
20
42.25
11
99.25
21
42.25
0
LINE
8
0
10
99.25
20
42.25
11
99.25
21
25.75
0
LINE
8
0
10
99.25
20
25.75
11
116.75
21
25.75
0
LINE
8
0
10
116.75
20
25.75
11
116.75
21
42.25
0
LINE
8
0
10
116.75
20
59.25
11
99.25
21
59.25
0
LINE
8
0
10
99.25
20
59.25
11
99.25
21
42.75
0
LINE
8
0
10
99.25
20
42.75
11
116.75
21
42.75
0
LINE
8
0
10
116.75
20
42.75
11
116.75
21
59.25
0
LINE
8
0
10
116.75
20
76.25
11
99.25
21
76.25
0
LINE
8
0
10
99.25
20
76.25
11
99.25
21
59.75
0
LINE
8
0
10
99.25
20
59.75
11
116.75
21
59.75
0
LINE
8
0
10
116.75
20
59.75
11
116.75
21
76.25
0
LINE
8
0
10
134.75
20
40.25
11
117.25
21
40.25
0
LINE
8
0
10
117.25
20
40.25
11
117.25
21
23.75
0
LINE
8
0
10
117.25
20
23.75
11
134.75
21
23.75
0
LINE
8
0
10
134.75
20
23.75
11
134.75
21
40.25
0
LINE
8
0
10
134.75
20
57.25
11
117.25
21
57.25
0
LINE
8
0
10
117.25
20
57.25
11
117.25
21
40.75
0
LINE
8
0
10
117.25
20
40.75
11
134.75
21
40.75
0
LINE
8
0
10
134.75
20
40.75
11
134.75
21
57.25
0
LINE
8
0
10
134.75
20
74.25
11
117.25
21
74.25
0
LINE
8
0
10
117.25
20
74.25
11
117.25
21
57.75
0
LINE
8
0
10
117.25
20
57.75
11
134.75
21
57.75
0
LINE
8
0
10
134.75
20
57.75
11
134.75
21
74.25
0
LINE
8
0
10
143.2302904
20
-16.2972777
11
134.4802904
21
-31.4527223
0
LINE
8
0
10
134.4802904
20
-31.4527223
11
148.7697096
21
-39.7027223
0
LINE
8
0
10
148.7697096
20
-39.7027223
11
157.5197096
21
-24.5472777
0
LINE
8
0
10
157.5197096
20
-24.5472777
11
143.2302904
21
-16.2972777
0
LINE
8
0
10
152.7302904
20
0.157205
11
143.9802904
21
-14.9982396
0
LINE
8
0
10
143.9802904
20
-14.9982396
11
158.2697096
21
-23.2482396
0
LINE
8
0
10
158.2697096
20
-23.2482396
11
167.0197096
21
-8.092795
0
LINE
8
0
10
167.0197096
20
-8.092795
11
152.7302904
21
0.157205
0
LINE
8
0
10
162.2302904
20
16.6116876
11
153.4802904
21
1.456243
0
LINE
8
0
10
153.4802904
20
1.456243
11
167.7697096
21
-6.793757
0
LINE
8
0
10
167.7697096
20
-6.793757
11
176.5197096
21
8.3616876
0
LINE
8
0
10
176.5197096
20
8.3616876
11
162.2302904
21
16.6116876
0
LINE
8
0
10
147.5078585
20
25.1116876
11
138.7578585
21
9.956243
0
LINE
8
0
10
138.7578585
20
9.956243
11
153.0472777
21
1.706243
0
LINE
8
0
10
153.0472777
20
1.706243
11
161.7972777
21
16.8616876
0
LINE
8
0
10
161.7972777
20
16.8616876
11
147.5078585
21
25.1116876
0
LINE
8
0
10
26.25
20
25.25
11
-0.25
21
25.25
0
LINE
8
0
10
-0.25
20
25.25
11
-0.25
21
8.75
0
LINE
8
0
10
-0.25
20
8.75
11
26.25
21
8.75
0
LINE
8
0
10
26.25
20
8.75
11
26.25
21
25.25
0
LINE
8
0
10
26.25
20
42.25
11
-0.25
21
42.25
0
LINE
8
0
10
-0.25
20
42.25
11
-0.25
21
25.75
0
LINE
8
0
10
-0.25
20
25.75
11
26.25
21
25.75
0
LINE
8
0
10
26.25
20
25.75
11
26.25
21
42.25
0
LINE
8
0
10
26.25
20
59.25
11
-0.25
21
59.25
0
LINE
8
0
10
-0.25
20
59.25
11
-0.25
21
42.75
0
LINE
8
0
10
-0.25
20
42.75
11
26.25
21
42.75
0
LINE
8
0
10
26.25
20
42.75
11
26.25
21
59.25
0
LINE
8
0
10
26.25
20
76.25
11
-0.25
21
76.25
0
LINE
8
0
10
-0.25
20
76.25
11
-0.25
21
59.75
0
LINE
8
0
10
-0.25
20
59.75
11
26.25
21
59.75
0
LINE
8
0
10
26.25
20
59.75
11
26.25
21
76.25
0
LINE
8
0
10
137.7578585
20
8.2241922
11
120.0078585
21
-22.5197096
0
LINE
8
0
10
120.0078585
20
-22.5197096
11
134.2972777
21
-30.7697096
0
LINE
8
0
10
134.2972777
20
-30.7697096
11
152.0472777
21
-0.0258078
0
LINE
8
0
10
152.0472777
20
-0.0258078
11
137.7578585
21
8.2241922
0
LINE
8
0
10
123.0354267
20
16.7241922
11
105.2854267
21
-14.0197096
0
LINE
8
0
10
105.2854267
20
-14.0197096
11
119.5748459
21
-22.2697096
0
LINE
8
0
10
119.5748459
20
-22.2697096
11
137.3248459
21
8.4741922
0
LINE
8
0
10
137.3248459
20
8.4741922
11
123.0354267
21
16.7241922
0
ENDSEC
0
EOF