0
SECTION
2
HEADER
9
$INSUNITS
70
4
0
ENDSEC
0
SECTION
2
TABLES
0
TABLE
2
LTYPE
0
LTYPE
72
65
70
64
2
CONTINUOUS
3
______
73
0
40
0
0
ENDTAB
0
TABLE
2
LAYER
0
ENDTAB
0
ENDSEC
0
SECTION
2
ENTITIES
0
LINE
8
0
10
8.75
20
8.75
11
-8.75
21
8.75
0
LINE
8
0
10
-8.75
20
8.75
11
-8.75
21
-8.75
0
LINE
8
0
10
-8.75
20
-8.75
11
-3.75
21
-8.75
0
LINE
8
0
10
8.75
20
-8.25
11
8.75
21
8.75
0
LINE
8
0
10
-3.75
20
-25.75
11
27.75
21
-25.75
0
LINE
8
0
10
10.25
20
-8.25
11
8.75
21
-8.25
0
LINE
8
0
10
-3.75
20
-8.75
11
-3.75
21
-25.75
0
LINE
8
0
10
27.75
20
8.75
11
10.25
21
8.75
0
LINE
8
0
10
10.25
20
8.75
11
10.25
21
-8.25
0
LINE
8
0
10
27.75
20
-25.75
11
27.75
21
8.75
0
LINE
8
0
10
46.75
20
10.75
11
29.25
21
10.75
0
LINE
8
0
10
29.25
20
-23.75
11
29.25
21
10.75
0
LINE
8
0
10
46.75
20
-23.75
11
46.75
21
10.75
0
LINE
8
0
10
29.25
20
-23.75
11
46.75
21
-23.75
0
LINE
8
0
10
65.75
20
12.75
11
48.25
21
12.75
0
LINE
8
0
10
48.25
20
-21.75
11
48.25
21
12.75
0
LINE
8
0
10
65.75
20
-21.75
11
65.75
21
12.75
0
LINE
8
0
10
48.25
20
-21.75
11
65.75
21
-21.75
0
LINE
8
0
10
84.75
20
10.75
11
67.25
21
10.75
0
LINE
8
0
10
67.25
20
-23.75
11
67.25
21
10.75
0
LINE
8
0
10
84.75
20
-23.75
11
84.75
21
10.75
0
LINE
8
0
10
67.25
20
-23.75
11
84.75
21
-23.75
0
LINE
8
0
10
103.75
20
25.75
11
86.25
21
25.75
0
LINE
8
0
10
86.25
20
-8.75
11
86.25
21
25.75
0
LINE
8
0
10
103.75
20
-8.75
11
103.75
21
25.75
0
LINE
8
0
10
86.25
20
-8.75
11
103.75
21
-8.75
0
LINE
8
0
10
122.75
20
40.75
11
105.25
21
40.75
0
LINE
8
0
10
105.25
20
6.25
11
105.25
21
40.75
0
LINE
8
0
10
122.75
20
6.25
11
122.75
21
40.75
0
LINE
8
0
10
105.25
20
6.25
11
122.75
21
6.25
0
LINE
8
0
10
122.2972777
20
-30.7697096
11
149.7972777
21
16.8616876
0
LINE
8
0
10
128.975481
20
-35.2027223
11
137.2027223
21
-39.9527223
0
LINE
8
0
10
137.2027223
20
-39.9527223
11
138.2027223
21
-38.2206715
0
LINE
8
0
10
114.0700364
20
-26.0197096
11
105.3200364
21
-41.1751542
0
LINE
8
0
10
105.3200364
20
-41.1751542
11
120.0424683
21
-49.6751542
0
LINE
8
0
10
124.475481
20
-42.9969509
11
128.975481
21
-35.2027223
0
LINE
8
0
10
122.2972777
20
-30.7697096
11
114.0700364
21
-26.0197096
0
LINE
8
0
10
115.2924683
20
-57.9023955
11
130.4479129
21
-66.6523955
0
LINE
8
0
10
130.4479129
20
-66.6523955
11
139.1979129
21
-51.4969509
0
LINE
8
0
10
139.1979129
20
-51.4969509
11
124.475481
21
-42.9969509
0
LINE
8
0
10
120.0424683
20
-49.6751542
11
115.2924683
21
-57.9023955
0
LINE
8
0
10
146.9527223
20
-23.0652269
11
147.7027223
21
-21.7661889
0
LINE
8
0
10
138.2027223
20
-38.2206715
11
152.9251542
21
-46.7206715
0
LINE
8
0
10
152.9251542
20
-46.7206715
11
161.6751542
21
-31.5652269
0
LINE
8
0
10
161.6751542
20
-31.5652269
11
146.9527223
21
-23.0652269
0
LINE
8
0
10
164.9527223
20
8.1116876
11
149.7972777
21
16.8616876
0
LINE
8
0
10
156.4527223
20
-6.6107443
11
164.9527223
21
8.1116876
0
LINE
8
0
10
147.7027223
20
-21.7661889
11
162.4251542
21
-30.2661889
0
LINE
8
0
10
162.4251542
20
-30.2661889
11
171.1751542
21
-15.1107443
0
LINE
8
0
10
171.1751542
20
-15.1107443
11
156.4527223
21
-6.6107443
0
ENDSEC
0
EOF